# xmcd
#
# Track frame offsets: 
#        150
#        23654
#        39817
#        59745
#        73951
#        92486
#        114046
#        128367
#        154749
#        171704
#
# Disc length: 2564 seconds
#
# Revision: 0
# Processed by: cddbd v1.5.2PL0 Copyright (c) Steve Scherf et al.
# Submitted via: ExactAudioCopy v1.0b3
#
DISCID=7b0a020a
DTITLE=Michael Rank and Stag - In The Weeds
DYEAR=2013
DGENRE=Country
TTITLE0='Round My Head
TTITLE1=All The Rope
TTITLE2=Confederates
TTITLE3=Field Song
TTITLE4=Topo
TTITLE5=Rifle Days
TTITLE6=This Town
TTITLE7=The River Cross
TTITLE8=Hunters
TTITLE9=The Surrender
EXTD=
EXTT0=
EXTT1=
EXTT2=
EXTT3=
EXTT4=
EXTT5=
EXTT6=
EXTT7=
EXTT8=
EXTT9=
PLAYORDER=
